<mxfile host="app.diagrams.net" modified="2024-03-18T08:36:34.219Z" agent="Mozilla/5.0 (Windows NT 10.0; Win64; x64) AppleWebKit/537.36 (KHTML, like Gecko) Chrome/120.0.0.0 YaBrowser/24.1.0.0 Safari/537.36" version="24.0.7" etag="OrpJc8p7kLyHV183Bn3F" type="github">
  <diagram name="Страница — 1" id="MKIC7z0ubptYwwnQLXqv">
    <mxGraphModel>
      <root>
        <mxCell id="0" />
        <mxCell id="1" parent="0" />
      </root>
    </mxGraphModel>
  </diagram>
</mxfile>
